<svg width="20" height="18" viewBox="0 0 20 18" fill="none" xmlns="http://www.w3.org/2000/svg">
<path d="M10.3699 10.593C10.1716 10.8113 9.82838 10.8113 9.63 10.593L0.760301 0.83635C0.468314 0.515163 0.6962 1.45249e-05 1.13027 1.45628e-05L18.8697 1.61137e-05C19.3038 1.61516e-05 19.5317 0.515166 19.2397 0.836352L10.3699 10.593Z" fill="white"/>
<path d="M7 6.5C7 6.22386 7.22386 6 7.5 6H12.5C12.7761 6 13 6.22386 13 6.5V17.1258C13 17.5125 12.5798 17.7528 12.2465 17.5568L7.24649 14.6156C7.09377 14.5257 7 14.3618 7 14.1846V6.5Z" fill="white"/>
</svg>
