<svg width="19" height="18" viewBox="0 0 19 18" fill="none" xmlns="http://www.w3.org/2000/svg">
<path d="M5.97536 18C13.1456 18 17.0665 11.0755 17.0665 5.0711C17.0665 4.87442 17.0631 4.67863 17.0555 4.48372C17.8167 3.8423 18.4783 3.04186 19 2.13067C18.3016 2.49258 17.5499 2.73621 16.7614 2.84607C17.5662 2.2835 18.1841 1.39357 18.4756 0.332665C17.7224 0.853152 16.8883 1.23145 16.0002 1.43566C15.2889 0.552379 14.2762 0 13.1548 0C11.0021 0 9.25632 2.03499 9.25632 4.54352C9.25632 4.90011 9.29052 5.24695 9.35741 5.57962C6.11749 5.38959 3.24467 3.5814 1.32223 0.831894C0.987444 1.50343 0.794403 2.2835 0.794403 3.11583C0.794403 4.69236 1.48259 6.08416 2.52912 6.89834C1.88957 6.8753 1.28879 6.67065 0.763622 6.33001C0.763048 6.34908 0.76305 6.36766 0.76305 6.38804C0.76305 8.5887 2.10674 10.4261 3.89048 10.8425C3.56292 10.9466 3.21825 11.0024 2.86257 11.0024C2.61177 11.0024 2.36742 10.9737 2.12992 10.9205C2.6262 12.726 4.06528 14.0399 5.7715 14.0766C4.4373 15.2957 2.75655 16.0217 0.929871 16.0217C0.615607 16.0217 0.305143 16.0009 0 15.9588C1.72522 17.2478 3.77382 18 5.97556 18" fill="#B6B6B6"/>
</svg>
