<svg width="21" height="18" viewBox="0 0 21 18" fill="none" xmlns="http://www.w3.org/2000/svg">
<path d="M17.789 1.5075C16.4296 0.80325 14.9761 0.291433 13.4565 0C13.2699 0.373607 13.0519 0.876116 12.9016 1.27586C11.2862 1.00687 9.68567 1.00687 8.10001 1.27586C7.94972 0.876116 7.72674 0.373607 7.53844 0C6.01721 0.291433 4.56204 0.80513 3.20267 1.51123C0.460812 6.09902 -0.28246 10.5729 0.0891771 14.9832C1.90772 16.4869 3.67011 17.4004 5.40275 17.9981C5.83055 17.3462 6.21209 16.6532 6.54078 15.9228C5.91478 15.6594 5.31521 15.3344 4.74869 14.9571C4.89898 14.8338 5.046 14.7049 5.18803 14.5722C8.64342 16.3618 12.3978 16.3618 15.8119 14.5722C15.9556 14.7049 16.1026 14.8338 16.2512 14.9571C15.683 15.3362 15.0818 15.6613 14.4558 15.9247C14.7845 16.6532 15.1644 17.3481 15.5939 18C17.3282 17.4022 19.0922 16.4888 20.9107 14.9832C21.3468 9.87051 20.1658 5.43775 17.789 1.5075ZM7.01153 12.2709C5.97426 12.2709 5.12361 11.1986 5.12361 9.89291C5.12361 8.58719 5.95609 7.5131 7.01153 7.5131C8.06699 7.5131 8.91761 8.58531 8.89945 9.89291C8.90109 11.1986 8.06699 12.2709 7.01153 12.2709ZM13.9884 12.2709C12.9511 12.2709 12.1005 11.1986 12.1005 9.89291C12.1005 8.58719 12.9329 7.5131 13.9884 7.5131C15.0438 7.5131 15.8945 8.58531 15.8763 9.89291C15.8763 11.1986 15.0438 12.2709 13.9884 12.2709Z" fill="#B6B6B6"/>
</svg>
