<svg width="20" height="17" viewBox="0 0 20 17" fill="none" xmlns="http://www.w3.org/2000/svg">
<path d="M20 9.5C18.5714 12.9048 15.5228 16 10 16C4.47715 16 1.42857 13.2143 0 9.5C1.42857 6.03458 4.47715 3 10 3C15.5228 3 18.5714 5.72506 20 9.5Z" fill="#3E3E4E"/>
<path d="M19 9.5C17.7143 12.381 14.9706 15 10 15C5.02944 15 2.28571 12.6429 1 9.5C2.28571 6.56773 5.02944 4 10 4C14.9706 4 17.7143 6.30582 19 9.5Z" fill="white"/>
<path d="M13.625 9.5C13.625 11.1804 12.0506 12.625 10 12.625C7.94937 12.625 6.375 11.1804 6.375 9.5C6.375 7.81958 7.94937 6.375 10 6.375C12.0506 6.375 13.625 7.81958 13.625 9.5Z" fill="white" stroke="#3E3E4E" stroke-width="0.75"/>
<line x1="2.35355" y1="1.64645" x2="17.3536" y2="16.6464" stroke="#3E3E4E"/>
<line x1="2.35355" y1="0.646447" x2="17.3536" y2="15.6464" stroke="white"/>
</svg>
