<svg width="20" height="13" viewBox="0 0 20 13" fill="none" xmlns="http://www.w3.org/2000/svg">
<path d="M20 6.5C18.5714 9.90476 15.5228 13 10 13C4.47715 13 1.42857 10.2143 0 6.5C1.42857 3.03458 4.47715 0 10 0C15.5228 0 18.5714 2.72506 20 6.5Z" fill="#3E3E4E"/>
<path d="M19 6.5C17.7143 9.38095 14.9706 12 10 12C5.02944 12 2.28571 9.64286 1 6.5C2.28571 3.56773 5.02944 1 10 1C14.9706 1 17.7143 3.30582 19 6.5Z" fill="white"/>
<path d="M13.625 6.5C13.625 8.18042 12.0506 9.625 10 9.625C7.94937 9.625 6.375 8.18042 6.375 6.5C6.375 4.81958 7.94937 3.375 10 3.375C12.0506 3.375 13.625 4.81958 13.625 6.5Z" fill="white" stroke="#3E3E4E" stroke-width="0.75"/>
</svg>
